<mxfile host="app.diagrams.net" modified="2024-04-23T09:37:40.589Z" agent="Mozilla/5.0 (Windows NT 10.0; Win64; x64) AppleWebKit/537.36 (KHTML, like Gecko) Chrome/124.0.0.0 Safari/537.36" etag="27yUv-6KeN4GNn6Me0lx" version="24.2.8" type="device">
  <diagram name="PÃ¡gina-1" id="LZ0vMD4xFcR4I24kFpnV">
    <mxGraphModel dx="1434" dy="754" grid="1" gridSize="10" guides="1" tooltips="1" connect="1" arrows="1" fold="1" page="1" pageScale="1" pageWidth="1169" pageHeight="827" math="0" shadow="0">
      <root>
        <mxCell id="0" />
        <mxCell id="1" parent="0" />
        <mxCell id="KZacTmdIzoN7Ga8BMroP-6" style="edgeStyle=orthogonalEdgeStyle;rounded=0;orthogonalLoop=1;jettySize=auto;html=1;exitX=1;exitY=0.5;exitDx=0;exitDy=0;endArrow=none;endFill=0;" edge="1" parent="1" source="KZacTmdIzoN7Ga8BMroP-1">
          <mxGeometry relative="1" as="geometry">
            <mxPoint x="670" y="80" as="targetPoint" />
          </mxGeometry>
        </mxCell>
        <mxCell id="KZacTmdIzoN7Ga8BMroP-18" style="edgeStyle=orthogonalEdgeStyle;rounded=0;orthogonalLoop=1;jettySize=auto;html=1;exitX=0.5;exitY=1;exitDx=0;exitDy=0;entryX=0.5;entryY=0;entryDx=0;entryDy=0;endArrow=none;endFill=0;startArrow=ERmany;startFill=0;" edge="1" parent="1" source="KZacTmdIzoN7Ga8BMroP-1">
          <mxGeometry relative="1" as="geometry">
            <mxPoint x="480" y="250" as="targetPoint" />
          </mxGeometry>
        </mxCell>
        <mxCell id="KZacTmdIzoN7Ga8BMroP-31" style="edgeStyle=orthogonalEdgeStyle;rounded=0;orthogonalLoop=1;jettySize=auto;html=1;exitX=0.75;exitY=1;exitDx=0;exitDy=0;entryX=0.5;entryY=0;entryDx=0;entryDy=0;startArrow=ERmany;startFill=0;endArrow=none;endFill=0;" edge="1" parent="1" source="KZacTmdIzoN7Ga8BMroP-1">
          <mxGeometry relative="1" as="geometry">
            <mxPoint x="450" y="120" as="sourcePoint" />
            <mxPoint x="830" y="404" as="targetPoint" />
            <Array as="points">
              <mxPoint x="470" y="150" />
              <mxPoint x="530" y="150" />
              <mxPoint x="530" y="230" />
              <mxPoint x="800" y="230" />
              <mxPoint x="800" y="404" />
            </Array>
          </mxGeometry>
        </mxCell>
        <mxCell id="KZacTmdIzoN7Ga8BMroP-40" style="edgeStyle=orthogonalEdgeStyle;rounded=0;orthogonalLoop=1;jettySize=auto;html=1;exitX=0;exitY=0.5;exitDx=0;exitDy=0;endArrow=none;endFill=0;startArrow=none;startFill=0;" edge="1" parent="1" source="KZacTmdIzoN7Ga8BMroP-1">
          <mxGeometry relative="1" as="geometry">
            <mxPoint x="80" y="390" as="targetPoint" />
          </mxGeometry>
        </mxCell>
        <mxCell id="KZacTmdIzoN7Ga8BMroP-55" style="edgeStyle=orthogonalEdgeStyle;rounded=0;orthogonalLoop=1;jettySize=auto;html=1;exitX=1;exitY=0.75;exitDx=0;exitDy=0;endArrow=none;endFill=0;" edge="1" parent="1" source="KZacTmdIzoN7Ga8BMroP-1">
          <mxGeometry relative="1" as="geometry">
            <mxPoint x="670" y="94.99999999999989" as="targetPoint" />
          </mxGeometry>
        </mxCell>
        <mxCell id="KZacTmdIzoN7Ga8BMroP-1" value="Equipo" style="rounded=0;whiteSpace=wrap;html=1;" vertex="1" parent="1">
          <mxGeometry x="380" y="50" width="120" height="60" as="geometry" />
        </mxCell>
        <mxCell id="KZacTmdIzoN7Ga8BMroP-4" value="Jugador" style="rounded=0;whiteSpace=wrap;html=1;" vertex="1" parent="1">
          <mxGeometry x="950" y="70" width="120" height="60" as="geometry" />
        </mxCell>
        <mxCell id="KZacTmdIzoN7Ga8BMroP-10" style="edgeStyle=orthogonalEdgeStyle;rounded=0;orthogonalLoop=1;jettySize=auto;html=1;entryX=0;entryY=0;entryDx=0;entryDy=0;endArrow=ERmany;endFill=0;dashed=1;dashPattern=12 12;" edge="1" parent="1" target="KZacTmdIzoN7Ga8BMroP-8">
          <mxGeometry relative="1" as="geometry">
            <mxPoint x="670" y="95" as="sourcePoint" />
            <Array as="points">
              <mxPoint x="670" y="95" />
              <mxPoint x="670" y="210" />
            </Array>
          </mxGeometry>
        </mxCell>
        <mxCell id="KZacTmdIzoN7Ga8BMroP-7" style="edgeStyle=orthogonalEdgeStyle;rounded=0;orthogonalLoop=1;jettySize=auto;html=1;endArrow=ERmany;endFill=0;dashed=1;dashPattern=12 12;startArrow=none;startFill=0;" edge="1" parent="1">
          <mxGeometry relative="1" as="geometry">
            <mxPoint x="670" y="80" as="sourcePoint" />
            <mxPoint x="948" y="80" as="targetPoint" />
            <Array as="points">
              <mxPoint x="810" y="80" />
              <mxPoint x="810" y="80" />
            </Array>
          </mxGeometry>
        </mxCell>
        <mxCell id="KZacTmdIzoN7Ga8BMroP-8" value="Staff" style="rounded=0;whiteSpace=wrap;html=1;" vertex="1" parent="1">
          <mxGeometry x="950" y="210" width="120" height="60" as="geometry" />
        </mxCell>
        <mxCell id="KZacTmdIzoN7Ga8BMroP-22" style="edgeStyle=orthogonalEdgeStyle;rounded=0;orthogonalLoop=1;jettySize=auto;html=1;exitX=1;exitY=0.5;exitDx=0;exitDy=0;startArrow=ERmany;startFill=0;endArrow=none;endFill=0;strokeWidth=1;targetPerimeterSpacing=0;" edge="1" parent="1" source="KZacTmdIzoN7Ga8BMroP-15">
          <mxGeometry relative="1" as="geometry">
            <mxPoint x="630" y="424" as="targetPoint" />
          </mxGeometry>
        </mxCell>
        <mxCell id="KZacTmdIzoN7Ga8BMroP-34" style="edgeStyle=orthogonalEdgeStyle;rounded=0;orthogonalLoop=1;jettySize=auto;html=1;exitX=0.5;exitY=1;exitDx=0;exitDy=0;endArrow=none;endFill=0;" edge="1" parent="1" source="KZacTmdIzoN7Ga8BMroP-15">
          <mxGeometry relative="1" as="geometry">
            <mxPoint x="480" y="570" as="targetPoint" />
          </mxGeometry>
        </mxCell>
        <mxCell id="KZacTmdIzoN7Ga8BMroP-15" value="Competicion" style="rounded=0;whiteSpace=wrap;html=1;" vertex="1" parent="1">
          <mxGeometry x="420" y="394" width="120" height="60" as="geometry" />
        </mxCell>
        <mxCell id="KZacTmdIzoN7Ga8BMroP-19" style="edgeStyle=orthogonalEdgeStyle;rounded=0;orthogonalLoop=1;jettySize=auto;html=1;entryX=0.5;entryY=0;entryDx=0;entryDy=0;endArrow=none;endFill=0;" edge="1" parent="1" target="KZacTmdIzoN7Ga8BMroP-15">
          <mxGeometry relative="1" as="geometry">
            <mxPoint x="480" y="250" as="sourcePoint" />
          </mxGeometry>
        </mxCell>
        <mxCell id="KZacTmdIzoN7Ga8BMroP-20" value="Juego" style="rounded=0;whiteSpace=wrap;html=1;" vertex="1" parent="1">
          <mxGeometry x="790" y="394" width="120" height="60" as="geometry" />
        </mxCell>
        <mxCell id="KZacTmdIzoN7Ga8BMroP-44" style="edgeStyle=orthogonalEdgeStyle;rounded=0;orthogonalLoop=1;jettySize=auto;html=1;entryX=0;entryY=0.5;entryDx=0;entryDy=0;dashed=1;dashPattern=8 8;endArrow=none;endFill=0;" edge="1" parent="1" target="KZacTmdIzoN7Ga8BMroP-20">
          <mxGeometry relative="1" as="geometry">
            <mxPoint x="630" y="424" as="sourcePoint" />
          </mxGeometry>
        </mxCell>
        <mxCell id="KZacTmdIzoN7Ga8BMroP-24" value="Enfrentamientos" style="rounded=0;whiteSpace=wrap;html=1;" vertex="1" parent="1">
          <mxGeometry x="20" y="610" width="120" height="60" as="geometry" />
        </mxCell>
        <mxCell id="KZacTmdIzoN7Ga8BMroP-28" style="edgeStyle=orthogonalEdgeStyle;rounded=0;orthogonalLoop=1;jettySize=auto;html=1;entryX=1;entryY=0.5;entryDx=0;entryDy=0;startArrow=none;startFill=0;endArrow=ERmany;endFill=0;" edge="1" parent="1" target="KZacTmdIzoN7Ga8BMroP-24">
          <mxGeometry relative="1" as="geometry">
            <mxPoint x="340" y="640" as="sourcePoint" />
          </mxGeometry>
        </mxCell>
        <mxCell id="KZacTmdIzoN7Ga8BMroP-36" style="edgeStyle=orthogonalEdgeStyle;rounded=0;orthogonalLoop=1;jettySize=auto;html=1;exitX=0;exitY=0.5;exitDx=0;exitDy=0;endArrow=none;endFill=0;" edge="1" parent="1" source="KZacTmdIzoN7Ga8BMroP-32">
          <mxGeometry relative="1" as="geometry">
            <mxPoint x="340" y="640" as="targetPoint" />
          </mxGeometry>
        </mxCell>
        <mxCell id="KZacTmdIzoN7Ga8BMroP-32" value="Jornadas" style="rounded=0;whiteSpace=wrap;html=1;" vertex="1" parent="1">
          <mxGeometry x="420" y="610" width="120" height="60" as="geometry" />
        </mxCell>
        <mxCell id="KZacTmdIzoN7Ga8BMroP-35" style="edgeStyle=orthogonalEdgeStyle;rounded=0;orthogonalLoop=1;jettySize=auto;html=1;exitX=0.5;exitY=1;exitDx=0;exitDy=0;entryX=0.5;entryY=0;entryDx=0;entryDy=0;endArrow=ERmany;endFill=0;" edge="1" parent="1" target="KZacTmdIzoN7Ga8BMroP-32">
          <mxGeometry relative="1" as="geometry">
            <mxPoint x="480" y="570" as="sourcePoint" />
          </mxGeometry>
        </mxCell>
        <mxCell id="KZacTmdIzoN7Ga8BMroP-41" style="edgeStyle=orthogonalEdgeStyle;rounded=0;orthogonalLoop=1;jettySize=auto;html=1;exitX=0.5;exitY=1;exitDx=0;exitDy=0;entryX=0.5;entryY=0;entryDx=0;entryDy=0;endArrow=none;endFill=0;" edge="1" parent="1" target="KZacTmdIzoN7Ga8BMroP-24">
          <mxGeometry relative="1" as="geometry">
            <mxPoint x="80" y="370" as="sourcePoint" />
          </mxGeometry>
        </mxCell>
        <mxCell id="KZacTmdIzoN7Ga8BMroP-45" value="1 jornada tiene muchos enfrentamientos" style="text;html=1;align=center;verticalAlign=middle;whiteSpace=wrap;rounded=0;" vertex="1" parent="1">
          <mxGeometry x="240" y="590" width="60" height="30" as="geometry" />
        </mxCell>
        <mxCell id="KZacTmdIzoN7Ga8BMroP-46" value="1 competicion tiene muchas jornadas" style="text;html=1;align=center;verticalAlign=middle;whiteSpace=wrap;rounded=0;" vertex="1" parent="1">
          <mxGeometry x="500" y="470" width="90" height="71" as="geometry" />
        </mxCell>
        <mxCell id="KZacTmdIzoN7Ga8BMroP-47" value="1 juego puede tener varias competiciones&lt;div&gt;y 1 competicion solo puede ser de un juego&lt;/div&gt;" style="text;html=1;align=center;verticalAlign=middle;whiteSpace=wrap;rounded=0;" vertex="1" parent="1">
          <mxGeometry x="580" y="330" width="140" height="80" as="geometry" />
        </mxCell>
        <mxCell id="KZacTmdIzoN7Ga8BMroP-49" value="1 equipo tiene varios jugadores y staff" style="text;html=1;align=center;verticalAlign=middle;whiteSpace=wrap;rounded=0;" vertex="1" parent="1">
          <mxGeometry x="550" y="100" width="110" height="50" as="geometry" />
        </mxCell>
        <mxCell id="KZacTmdIzoN7Ga8BMroP-51" value="1 equipo disputa 1 enfrentamiento por jornada" style="text;html=1;align=center;verticalAlign=middle;whiteSpace=wrap;rounded=0;" vertex="1" parent="1">
          <mxGeometry x="100" y="290" width="90" height="70" as="geometry" />
        </mxCell>
        <mxCell id="KZacTmdIzoN7Ga8BMroP-53" value="1 equipo puede participar en varios juegos" style="text;html=1;align=center;verticalAlign=middle;whiteSpace=wrap;rounded=0;" vertex="1" parent="1">
          <mxGeometry x="810" y="270" width="90" height="70" as="geometry" />
        </mxCell>
        <mxCell id="KZacTmdIzoN7Ga8BMroP-54" value="1 competicion tiene muchos equipos" style="text;html=1;align=center;verticalAlign=middle;whiteSpace=wrap;rounded=0;" vertex="1" parent="1">
          <mxGeometry x="390" y="270" width="80" height="70" as="geometry" />
        </mxCell>
        <mxCell id="KZacTmdIzoN7Ga8BMroP-56" value="Maximo 6 jugadores por equipo y minimo 2 (utilizaremos un trigger)" style="text;html=1;align=center;verticalAlign=middle;whiteSpace=wrap;rounded=0;fillColor=#dae8fc;strokeColor=#6c8ebf;" vertex="1" parent="1">
          <mxGeometry x="700" y="20" width="180" height="50" as="geometry" />
        </mxCell>
        <mxCell id="KZacTmdIzoN7Ga8BMroP-57" value="Comprobaremos que un equipo solo participe una vez por jornada (trigger)" style="text;html=1;align=center;verticalAlign=middle;whiteSpace=wrap;rounded=0;fillColor=#dae8fc;strokeColor=#6c8ebf;" vertex="1" parent="1">
          <mxGeometry x="340" y="490" width="130" height="69.5" as="geometry" />
        </mxCell>
        <mxCell id="KZacTmdIzoN7Ga8BMroP-58" value="Minimo 1 entrenador&amp;nbsp; (trigger)" style="text;html=1;align=center;verticalAlign=middle;whiteSpace=wrap;rounded=0;fillColor=#dae8fc;strokeColor=#6c8ebf;" vertex="1" parent="1">
          <mxGeometry x="760" y="150" width="90" height="50" as="geometry" />
        </mxCell>
        <mxCell id="KZacTmdIzoN7Ga8BMroP-59" value="Comprobaremos que se jueguen todos los enfrentamientos de la jornada el mismo dia" style="text;html=1;align=center;verticalAlign=middle;whiteSpace=wrap;rounded=0;fillColor=#dae8fc;strokeColor=#6c8ebf;" vertex="1" parent="1">
          <mxGeometry x="190" y="650" width="180" height="60" as="geometry" />
        </mxCell>
        <mxCell id="KZacTmdIzoN7Ga8BMroP-60" value="Comprobaremos que el numero de equipos en una competicion es par" style="text;html=1;align=center;verticalAlign=middle;whiteSpace=wrap;rounded=0;fillColor=#dae8fc;strokeColor=#6c8ebf;" vertex="1" parent="1">
          <mxGeometry x="340" y="190" width="120" height="70" as="geometry" />
        </mxCell>
      </root>
    </mxGraphModel>
  </diagram>
</mxfile>
